<svg width="12" height="13" viewBox="0 0 12 13" fill="none" xmlns="http://www.w3.org/2000/svg">
<path d="M6.08469 7.82696C5.91677 7.82696 5.77611 7.76707 5.66271 7.64729C5.54892 7.52792 5.49202 7.37986 5.49202 7.2031C5.49202 7.02634 5.54892 6.87807 5.66271 6.75829C5.77611 6.63892 5.91677 6.57924 6.08469 6.57924C6.25261 6.57924 6.39347 6.63892 6.50726 6.75829C6.62066 6.87807 6.67736 7.02634 6.67736 7.2031C6.67736 7.37986 6.62066 7.52792 6.50726 7.64729C6.39347 7.76707 6.25261 7.82696 6.08469 7.82696ZM3.71401 7.82696C3.54609 7.82696 3.40523 7.76707 3.29144 7.64729C3.17804 7.52792 3.12135 7.37986 3.12135 7.2031C3.12135 7.02634 3.17804 6.87807 3.29144 6.75829C3.40523 6.63892 3.54609 6.57924 3.71401 6.57924C3.88194 6.57924 4.02279 6.63892 4.13659 6.75829C4.24998 6.87807 4.30668 7.02634 4.30668 7.2031C4.30668 7.37986 4.24998 7.52792 4.13659 7.64729C4.02279 7.76707 3.88194 7.82696 3.71401 7.82696ZM8.45536 7.82696C8.28744 7.82696 8.14678 7.76707 8.03338 7.64729C7.91959 7.52792 7.86269 7.37986 7.86269 7.2031C7.86269 7.02634 7.91959 6.87807 8.03338 6.75829C8.14678 6.63892 8.28744 6.57924 8.45536 6.57924C8.62329 6.57924 8.76395 6.63892 8.87734 6.75829C8.99113 6.87807 9.04803 7.02634 9.04803 7.2031C9.04803 7.37986 8.99113 7.52792 8.87734 7.64729C8.76395 7.76707 8.62329 7.82696 8.45536 7.82696ZM6.08469 10.3224C5.91677 10.3224 5.77611 10.2625 5.66271 10.1427C5.54892 10.0234 5.49202 9.87531 5.49202 9.69855C5.49202 9.52178 5.54892 9.37372 5.66271 9.25436C5.77611 9.13457 5.91677 9.07468 6.08469 9.07468C6.25261 9.07468 6.39347 9.13457 6.50726 9.25436C6.62066 9.37372 6.67736 9.52178 6.67736 9.69855C6.67736 9.87531 6.62066 10.0234 6.50726 10.1427C6.39347 10.2625 6.25261 10.3224 6.08469 10.3224ZM3.71401 10.3224C3.54609 10.3224 3.40523 10.2625 3.29144 10.1427C3.17804 10.0234 3.12135 9.87531 3.12135 9.69855C3.12135 9.52178 3.17804 9.37372 3.29144 9.25436C3.40523 9.13457 3.54609 9.07468 3.71401 9.07468C3.88194 9.07468 4.02279 9.13457 4.13659 9.25436C4.24998 9.37372 4.30668 9.52178 4.30668 9.69855C4.30668 9.87531 4.24998 10.0234 4.13659 10.1427C4.02279 10.2625 3.88194 10.3224 3.71401 10.3224ZM8.45536 10.3224C8.28744 10.3224 8.14678 10.2625 8.03338 10.1427C7.91959 10.0234 7.86269 9.87531 7.86269 9.69855C7.86269 9.52178 7.91959 9.37372 8.03338 9.25436C8.14678 9.13457 8.28744 9.07468 8.45536 9.07468C8.62329 9.07468 8.76395 9.13457 8.87734 9.25436C8.99113 9.37372 9.04803 9.52178 9.04803 9.69855C9.04803 9.87531 8.99113 10.0234 8.87734 10.1427C8.76395 10.2625 8.62329 10.3224 8.45536 10.3224ZM1.93601 12.8179C1.61004 12.8179 1.33089 12.6958 1.09857 12.4516C0.866637 12.2071 0.750671 11.9133 0.750671 11.5701V2.83607C0.750671 2.49294 0.866637 2.19931 1.09857 1.95518C1.33089 1.71062 1.61004 1.58835 1.93601 1.58835H2.52868V0.340622H3.71401V1.58835H8.45536V0.340622H9.6407V1.58835H10.2334C10.5593 1.58835 10.8385 1.71062 11.0708 1.95518C11.3027 2.19931 11.4187 2.49294 11.4187 2.83607V11.5701C11.4187 11.9133 11.3027 12.2071 11.0708 12.4516C10.8385 12.6958 10.5593 12.8179 10.2334 12.8179H1.93601ZM1.93601 11.5701H10.2334V5.33151H1.93601V11.5701Z" fill="white"/>
</svg>
