<svg width="146" height="84" viewBox="0 0 146 84" fill="none" xmlns="http://www.w3.org/2000/svg">
<rect x="58.3181" y="3.83423" width="29.5748" height="79.6244" fill="#00282C"/>
<path d="M57.1808 1.10394C57.9998 1.46793 58.3562 2.99976 58.432 3.72017C68.1765 3.87183 87.6428 4.08416 87.5518 3.72017C87.4608 3.35617 88.1205 1.82435 88.4618 1.10394C77.6935 0.95227 56.3618 0.739939 57.1808 1.10394Z" fill="#00282C"/>
<rect x="7.35876" y="55.7037" width="24.1148" height="27.7548" fill="#00282C"/>
<path d="M7.13122 55.7036H31.4735C31.3219 47.6274 31.8521 31.3861 31.4735 31.1337C30.791 30.6787 20.8949 33.8638 14.6387 42.1674C8.52485 50.2821 1.10251 51.9498 0.875013 52.4048C0.693015 52.7688 4.96998 54.7556 7.13122 55.7036Z" fill="#00282C"/>
<rect width="24.1148" height="27.7548" transform="matrix(-1 0 0 1 139.218 55.7457)" fill="#00282C"/>
<path d="M139.447 55.7459H115.104C115.256 47.6697 114.726 31.4285 115.104 31.1761C115.787 30.7211 125.683 33.9061 131.939 42.2098C138.053 50.3244 145.475 51.9922 145.703 52.4472C145.885 52.8112 141.608 54.798 139.447 55.7459Z" fill="#00282C"/>
<rect x="33.2937" y="29.5411" width="24.1148" height="53.9171" fill="#00282C"/>
<path d="M32.9576 29.5834H57.3C57.1483 21.5072 57.6785 5.26602 57.3 5.01362C56.6175 4.55858 46.7213 7.74365 40.4651 16.0473C34.3513 24.162 26.9289 25.8297 26.7014 26.2847C26.5194 26.6487 30.7964 28.6355 32.9576 29.5834Z" fill="#00282C"/>
<rect width="24.1148" height="53.9171" transform="matrix(-1 0 0 1 113.176 29.5413)" fill="#00282C"/>
<path d="M113.512 29.5836H89.1698C89.3214 21.5074 88.7912 5.26615 89.1698 5.01374C89.8523 4.55871 99.7484 7.74378 106.005 16.0474C112.118 24.1621 119.541 25.8298 119.768 26.2848C119.95 26.6488 115.673 28.6356 113.512 29.5836Z" fill="#00282C"/>
</svg>
