<svg width="60" height="58" viewBox="0 0 60 58" fill="none" xmlns="http://www.w3.org/2000/svg">
<path d="M56.6699 19.2404L39.7698 17.7743L33.1704 2.2406C31.9832 -0.586874 27.9328 -0.586874 26.7456 2.2406L20.1462 17.8092L3.28101 19.2404C0.20827 19.4847 -1.04876 23.3245 1.29071 25.3491L14.1054 36.4496L10.2645 52.9258C9.56616 55.9278 12.8135 58.3015 15.4672 56.6957L29.958 47.969L44.4488 56.7306C47.1025 58.3364 50.3498 55.9627 49.6515 52.9607L45.8106 36.4496L58.6253 25.3491C60.9647 23.3245 59.7426 19.4847 56.6699 19.2404V19.2404ZM29.958 41.4413L16.829 49.3652L20.3208 34.425L8.72814 24.3717L24.022 23.0453L29.958 8.97768L35.9289 23.0802L51.2228 24.4066L39.6301 34.4599L43.1219 49.4001L29.958 41.4413Z" fill="black" fill-opacity="0.5"/>
</svg>
