<svg width="21" height="13" viewBox="0 0 21 13" fill="none" xmlns="http://www.w3.org/2000/svg">
<path d="M7.15652 0.479492H9.49246V7.99512C9.49246 8.87012 9.30496 9.6071 8.92996 10.2061C8.56017 10.805 8.04715 11.2555 7.3909 11.5576C6.73986 11.8597 5.98986 12.0107 5.1409 12.0107C4.29194 12.0107 3.53673 11.8597 2.87527 11.5576C2.21902 11.2555 1.7034 10.805 1.3284 10.2061C0.958608 9.6071 0.773712 8.87012 0.773712 7.99512V0.479492H3.11746V7.99512C3.11746 8.50553 3.19819 8.9222 3.35965 9.24512C3.52111 9.56803 3.75288 9.80501 4.05496 9.95605C4.36225 10.1071 4.72423 10.1826 5.1409 10.1826C5.56798 10.1826 5.92996 10.1071 6.22684 9.95605C6.52892 9.80501 6.75809 9.56803 6.91434 9.24512C7.0758 8.9222 7.15652 8.50553 7.15652 7.99512V0.479492ZM15.8518 7.7998H12.9534V5.97168H15.8518C16.2998 5.97168 16.6643 5.89876 16.9456 5.75293C17.2268 5.60189 17.4326 5.39355 17.5628 5.12793C17.693 4.8623 17.7581 4.56283 17.7581 4.22949C17.7581 3.89095 17.693 3.57585 17.5628 3.28418C17.4326 2.99251 17.2268 2.75814 16.9456 2.58105C16.6643 2.40397 16.2998 2.31543 15.8518 2.31543H13.7659V11.8545H11.4221V0.479492H15.8518C16.7425 0.479492 17.5055 0.640951 18.1409 0.963867C18.7815 1.28158 19.2711 1.72168 19.6096 2.28418C19.9482 2.84668 20.1175 3.48991 20.1175 4.21387C20.1175 4.94824 19.9482 5.58366 19.6096 6.12012C19.2711 6.65658 18.7815 7.07064 18.1409 7.3623C17.5055 7.65397 16.7425 7.7998 15.8518 7.7998Z" fill="#9747FF"/>
</svg>
